<?xml version="1.0" encoding="UTF-8"?>
<svg width="43px" height="35px" viewBox="0 0 43 35" version="1.1" xmlns="http://www.w3.org/2000/svg" xmlns:xlink="http://www.w3.org/1999/xlink">
    <!-- Generator: Sketch 53.2 (72643) - https://sketchapp.com -->
    <title>logo</title>
    <style>
       svg {
           position:absolute;
           left:0;
           right:0;
           z-index:50;
       }       
       g,path {
           transition-property: all;
           transition-duration: 0.5s;
       }
       svg:hover #Page-1{
            transform: scale(0.70,0.70);
            transform-origin: 50% 50%;
       }
       svg:hover #Fill-88{
            transform: rotate(-45deg);
            transform-origin: 40% 24%;
       }

    </style>
    <desc>Created with Sketch.</desc>
    <g id="Page-1" stroke="none" stroke-width="1" fill="none" fill-rule="evenodd">
        <g id="logo" fill-rule="nonzero">
            <path  d="M38.964046,19.6429732 C38.8426667,19.8532414 38.5710958,19.9261916 38.3608276,19.8048123 L17.5344674,7.78090421 C17.3241992,7.6595249 17.2518621,7.38795402 17.3732414,7.17768582 L21.3897931,0.220444444 C21.5111724,0.0101762452 21.7827433,-0.0627739464 21.9930115,0.058605364 L42.8187586,12.0825134 C43.0290268,12.2038927 43.101977,12.4754636 42.9805977,12.6857318 L38.964046,19.6429732 Z" id="Fill-88" fill="#68AFC0"></path>
            <path d="M18.6931494,27.8805211 C18.5717701,28.0907893 18.3001992,28.1637395 18.089931,28.0423602 L8.90004598,22.736613 C8.68977778,22.6152337 8.61682759,22.3436628 8.7382069,22.1333946 L15.8762912,9.77048276 C15.9976705,9.56021456 16.2686284,9.48726437 16.4795096,9.60864368 L25.6687816,14.9143908 C25.8796628,15.0357701 25.952,15.307341 25.8306207,15.5176092 L18.6931494,27.8805211 Z" id="Fill-90" fill="#15537F"></path>
            <path d="M37.3198467,21.6410115 L28.1299617,16.3352644 C27.9196935,16.2138851 27.6481226,16.2868352 27.5267433,16.4971034 L20.389272,28.8600153 C20.2678927,29.0702835 20.3402299,29.3418544 20.5511111,29.4632337 L28.84659,34.2528123 L0,34.2528123 L0,34.8278314 L29.9543295,34.8278314 L29.9543295,34.8210881 C30.1088123,34.8229272 30.2614559,34.749977 30.3436015,34.6071418 L37.4816858,22.2442299 C37.6030651,22.0339617 37.5301149,21.7623908 37.3198467,21.6410115" id="Fill-92" fill="#B1C5BF"></path>
        </g>
    </g>
</svg>