<?xml version="1.0"?>
<svg width="100" height="80" xmlns="http://www.w3.org/2000/svg" xmlns:svg="http://www.w3.org/2000/svg">
 <style type="text/css">.st0{fill:#ACB3BD;}
	.st1{fill:#B5D228;}</style>
 <g class="layer">
  <title>Layer 1</title>
  <g id="svg_1">
   <g id="svg_2">
    <g id="svg_5"/>
    <g id="svg_7"/>
   </g>
   <g id="svg_9">
    <g id="svg_11">
     <g id="svg_12"/>
     <g id="svg_14"/>
    </g>
   </g>
   <g id="svg_16">
    <g id="svg_17">
     <g id="svg_28"/>
     <g id="svg_40"/>
     <g id="svg_50"/>
    </g>
    <g id="svg_52"/>
   </g>
  </g>
  <g id="svg_65">
   <polygon class="st0" id="svg_3" points="31.410003662109375,56.790008544921875 25.55999755859375,66.92001342773438 27.649993896484375,66.92001342773438 31.410003662109375,60.410003662109375 35.170013427734375,66.92001342773438 37.260009765625,66.92001342773438 "/>
   <rect class="st0" height="1.81" id="svg_4" transform="matrix(-1.83697e-16 1 -1 -1.83697e-16 733.909 153.803)" width="10.12" x="-97.01" y="694.95"/>
   <polygon class="st1" id="svg_6" points="21.17999267578125,56.8599853515625 13.040008544921875,56.8599853515625 13.040008544921875,58.660003662109375 16.209991455078125,58.660003662109375 16.209991455078125,66.98001098632812 18.019989013671875,66.98001098632812 18.019989013671875,58.660003662109375 21.17999267578125,58.660003662109375 "/>
   <polygon class="st1" id="svg_8" points="27.3699951171875,58.660003662109375 27.3699951171875,56.8599853515625 21.95001220703125,56.8599853515625 21.95001220703125,66.98001098632812 23.760009765625,66.98001098632812 23.760009765625,62.540008544921875 26.1099853515625,62.540008544921875 26.1099853515625,60.739990234375 23.760009765625,60.739990234375 23.760009765625,58.660003662109375 "/>
   <path class="st0" d="m76.46,19.63c-10.35,1.49 -20.95,2.26 -31.52,2.3l-0.03,0l0,4.29l0.04,0c9.94,-0.03 19.91,-0.7 29.68,-2l0,23.58c0,0.69 -0.56,1.25 -1.25,1.25l-28.46,0l0,4.25l29.82,0c2.31,0 4.18,-1.87 4.18,-4.18l0,-29.84l-2.46,0.35z" fill="black" id="svg_10"/>
   <path class="st1" d="m28.98,11.02l0,5.04c6.88,3.95 13.51,5.44 15.93,5.89l0,-4.38c-2.93,-0.63 -9.61,-2.39 -15.93,-6.55z" id="svg_13"/>
   <path class="st1" d="m13.04,53.3l4.29,0l0,-27.34c2.08,-0.59 4.62,-1.45 7.35,-2.68l0,30.02l4.29,0l0,-37.24c-6.33,4.16 -13,5.92 -15.93,6.54l0,30.7z" fill="black" id="svg_15"/>
   <path class="st0" d="m45.89,58.62l0,1.62l-0.39,0l0,-1.62l-0.65,0l0,-0.3l1.7,0l0,0.3l-0.66,0z" id="svg_18"/>
   <path class="st0" d="m47.91,60.24l-0.2,-0.48l-0.78,0l-0.2,0.48l-0.38,0l0.82,-1.93l0.3,0l0.82,1.93l-0.38,0zm-0.58,-1.45l-0.29,0.7l0.57,0l-0.28,-0.7z" id="svg_19"/>
   <path class="st0" d="m48.55,60.24l0,-1.93l0.39,0l0,1.93l-0.39,0z" id="svg_20"/>
   <path class="st0" d="m51.25,60.24l-0.29,0l-0.38,-1.15c-0.02,-0.04 -0.04,-0.14 -0.04,-0.15c0,0 -0.03,0.11 -0.04,0.15l-0.38,1.15l-0.29,0l-0.66,-1.93l0.39,0l0.39,1.21c0.01,0.04 0.04,0.17 0.04,0.18l0.05,-0.18l0.37,-1.21l0.28,0l0.38,1.21c0.01,0.04 0.04,0.18 0.04,0.18s0.02,-0.13 0.04,-0.18l0.39,-1.21l0.38,0l-0.67,1.93z" id="svg_21"/>
   <path class="st0" d="m53.29,60.24l-0.2,-0.48l-0.78,0l-0.2,0.48l-0.38,0l0.82,-1.93l0.3,0l0.82,1.93l-0.38,0zm-0.58,-1.45l-0.29,0.7l0.57,0l-0.28,-0.7z" id="svg_22"/>
   <path class="st0" d="m55.28,60.24l-1.01,-1.27l0,1.27l-0.35,0l0,-1.93l0.27,0l1.01,1.27l0,-1.27l0.35,0l0,1.93l-0.27,0z" id="svg_23"/>
   <path class="st0" d="m57.3,58.62l0,0.47l0.68,0l0,0.3l-0.68,0l0,0.85l-0.39,0l0,-1.93l1.23,0l0,0.3l-0.84,0l0,0.01z" id="svg_24"/>
   <path class="st0" d="m58.4,60.24l0,-1.93l0.39,0l0,1.93l-0.39,0z" id="svg_25"/>
   <path class="st0" d="m59.21,60.24l0,-1.93l0.39,0l0,1.62l0.86,0l0,0.3l-1.25,0l0,0.01z" id="svg_26"/>
   <path class="st0" d="m62.45,60.24l0,-1.18c0,-0.04 0.01,-0.17 0.01,-0.18l-0.07,0.18l-0.52,1.18l-0.24,0l-0.52,-1.18c-0.02,-0.04 -0.06,-0.16 -0.07,-0.18c0,0.01 0.01,0.14 0.01,0.18l0,1.18l-0.34,0l0,-1.93l0.42,0l0.64,1.41l0.63,-1.41l0.4,0l0,1.93l-0.35,0z" id="svg_27"/>
   <path class="st0" d="m46.38,63.07l-0.2,-0.48l-0.78,0l-0.2,0.48l-0.38,0l0.82,-1.93l0.3,0l0.82,1.93l-0.38,0zm-0.59,-1.45l-0.29,0.7l0.57,0l-0.28,-0.7z" id="svg_29"/>
   <path class="st0" d="m47.77,63.12c-0.51,0 -0.89,-0.29 -0.89,-0.94l0,-1.04l0.4,0l0,1.02c0,0.42 0.18,0.62 0.49,0.62s0.49,-0.2 0.49,-0.62l0,-1.02l0.38,0l0,1.04c0.01,0.65 -0.36,0.94 -0.87,0.94z" id="svg_30"/>
   <path class="st0" d="m49.76,63.07l-0.68,0l0,-1.93l0.68,0c0.77,0 1.09,0.43 1.09,0.96s-0.32,0.97 -1.09,0.97zm-0.02,-1.61l-0.27,0l0,1.3l0.27,0c0.53,0 0.71,-0.26 0.71,-0.65c0,-0.39 -0.19,-0.65 -0.71,-0.65z" id="svg_31"/>
   <path class="st0" d="m51.18,63.07l0,-1.93l0.39,0l0,1.93l-0.39,0z" id="svg_32"/>
   <path class="st0" d="m52.95,63.12c-0.59,0 -1.05,-0.43 -1.05,-1.02c0,-0.59 0.46,-1.02 1.05,-1.02c0.59,0 1.04,0.43 1.04,1.02c0,0.6 -0.45,1.02 -1.04,1.02zm0,-1.72c-0.39,0 -0.64,0.29 -0.64,0.71c0,0.42 0.25,0.71 0.64,0.71c0.38,0 0.63,-0.29 0.63,-0.71c0,-0.42 -0.25,-0.71 -0.63,-0.71z" id="svg_33"/>
   <path class="st0" d="m55.14,63.07l-0.3,0l-0.82,-1.93l0.4,0l0.57,1.38l0.57,-1.38l0.39,0l-0.81,1.93z" id="svg_34"/>
   <path class="st0" d="m56.2,63.07l0,-1.93l0.39,0l0,1.93l-0.39,0z" id="svg_35"/>
   <path class="st0" d="m57.59,63.11c-0.32,0 -0.55,-0.13 -0.68,-0.24l0.09,-0.31c0.13,0.12 0.33,0.26 0.59,0.26c0.19,0 0.34,-0.1 0.34,-0.27c0,-0.16 -0.09,-0.24 -0.4,-0.32c-0.4,-0.1 -0.57,-0.31 -0.57,-0.59c0,-0.31 0.25,-0.54 0.66,-0.54c0.24,0 0.45,0.09 0.58,0.19l-0.08,0.27c-0.13,-0.09 -0.33,-0.17 -0.5,-0.17c-0.19,0 -0.3,0.08 -0.3,0.22c0,0.11 0.07,0.2 0.33,0.26c0.45,0.11 0.64,0.3 0.64,0.64c0,0.42 -0.34,0.6 -0.7,0.6z" id="svg_36"/>
   <path class="st0" d="m59.5,63.12c-0.51,0 -0.89,-0.29 -0.89,-0.94l0,-1.04l0.4,0l0,1.02c0,0.42 0.18,0.62 0.49,0.62c0.31,0 0.49,-0.2 0.49,-0.62l0,-1.02l0.38,0l0,1.04c0.01,0.65 -0.36,0.94 -0.87,0.94z" id="svg_37"/>
   <path class="st0" d="m62.05,63.07l-0.2,-0.48l-0.78,0l-0.2,0.48l-0.38,0l0.82,-1.93l0.3,0l0.82,1.93l-0.38,0zm-0.59,-1.45l-0.29,0.7l0.57,0l-0.28,-0.7z" id="svg_38"/>
   <path class="st0" d="m62.68,63.07l0,-1.93l0.39,0l0,1.62l0.86,0l0,0.3l-1.25,0l0,0.01z" id="svg_39"/>
   <path class="st0" d="m64.89,63.06l0,-1.93l0.39,0l0,1.93l-0.39,0z" id="svg_41"/>
   <path class="st0" d="m67.07,63.06l-1.01,-1.27l0,1.27l-0.35,0l0,-1.93l0.27,0l1.01,1.27l0,-1.27l0.35,0l0,1.93l-0.27,0z" id="svg_42"/>
   <path class="st0" d="m68.34,63.1c-0.32,0 -0.55,-0.13 -0.68,-0.24l0.09,-0.31c0.13,0.12 0.33,0.26 0.59,0.26c0.19,0 0.34,-0.1 0.34,-0.27c0,-0.16 -0.09,-0.24 -0.4,-0.32c-0.4,-0.1 -0.57,-0.31 -0.57,-0.59c0,-0.31 0.25,-0.54 0.66,-0.54c0.24,0 0.45,0.09 0.58,0.19l-0.08,0.27c-0.13,-0.09 -0.33,-0.17 -0.5,-0.17c-0.19,0 -0.3,0.08 -0.3,0.22c0,0.11 0.07,0.2 0.33,0.26c0.45,0.11 0.64,0.3 0.64,0.64c0,0.42 -0.34,0.6 -0.7,0.6z" id="svg_43"/>
   <path class="st0" d="m70.16,61.44l0,1.62l-0.39,0l0,-1.62l-0.65,0l0,-0.3l1.7,0l0,0.3l-0.66,0z" id="svg_44"/>
   <path class="st0" d="m71.06,63.06l0,-1.93l0.39,0l0,1.93l-0.39,0z" id="svg_45"/>
   <path class="st0" d="m72.74,61.44l0,1.62l-0.39,0l0,-1.62l-0.65,0l0,-0.3l1.7,0l0,0.3l-0.66,0z" id="svg_46"/>
   <path class="st0" d="m74.53,63.12c-0.51,0 -0.89,-0.29 -0.89,-0.94l0,-1.04l0.4,0l0,1.02c0,0.42 0.18,0.62 0.49,0.62s0.49,-0.2 0.49,-0.62l0,-1.02l0.38,0l0,1.04c0.01,0.64 -0.37,0.94 -0.87,0.94z" id="svg_47"/>
   <path class="st0" d="m76.7,61.44l0,1.62l-0.39,0l0,-1.62l-0.65,0l0,-0.3l1.7,0l0,0.3l-0.66,0z" id="svg_48"/>
   <path class="st0" d="m77.6,63.06l0,-1.93l1.26,0l0,0.3l-0.86,0l0,0.45l0.7,0l0,0.3l-0.7,0l0,0.56l0.86,0l0,0.3l-1.26,0l0,0.02z" id="svg_49"/>
   <path class="st0" d="m65.16,60.22l-0.17,-0.18c-0.15,0.13 -0.35,0.21 -0.55,0.21c-0.36,0 -0.62,-0.24 -0.62,-0.54c0,-0.24 0.16,-0.4 0.35,-0.54c-0.16,-0.18 -0.22,-0.28 -0.22,-0.41c0,-0.26 0.21,-0.43 0.5,-0.43c0.25,0 0.48,0.14 0.48,0.4c0,0.21 -0.15,0.35 -0.35,0.49l0.42,0.44c0.06,-0.12 0.1,-0.26 0.1,-0.42l0.24,0c0,0.23 -0.06,0.44 -0.16,0.61l0.38,0.39l-0.4,0l0,-0.02zm-0.33,-0.35l-0.49,-0.52c-0.14,0.1 -0.24,0.21 -0.24,0.35c0,0.18 0.17,0.31 0.37,0.31c0.13,0 0.26,-0.05 0.36,-0.14zm-0.61,-1.13c0,0.07 0.03,0.12 0.18,0.27c0.16,-0.1 0.26,-0.19 0.26,-0.3c0,-0.11 -0.09,-0.19 -0.21,-0.19c-0.14,0.01 -0.23,0.11 -0.23,0.22z" id="svg_51"/>
   <path class="st0" d="m47.31,66.84l-2.47,0l0,-2.3l2.47,0l0,2.3zm-0.26,-0.21l0,-1.87l-1.97,0l0,1.87l1.97,0zm-1.07,-0.11l-0.11,-0.16c0.06,-0.03 0.13,-0.08 0.2,-0.13c-0.08,0.01 -0.16,0.02 -0.24,0.03l-0.03,0.01c-0.01,0 -0.02,0 -0.03,0l-0.03,0.01l-0.03,0c-0.02,0 -0.04,0.01 -0.06,0.01l-0.03,0.01c-0.15,0.02 -0.28,0.04 -0.4,0.06l-0.03,-0.18c0.14,-0.02 0.33,-0.04 0.53,-0.07l0.03,-0.01l0.03,0c0.03,-0.01 0.06,-0.01 0.09,-0.01l0.03,-0.01c0.05,-0.01 0.1,-0.01 0.15,-0.02l0.02,0.17c0.06,-0.05 0.15,-0.12 0.2,-0.18c-0.07,-0.19 -0.14,-0.48 -0.17,-0.77l-0.87,0l0,-0.18l0.87,0c-0.01,-0.09 -0.01,-0.18 -0.02,-0.26l0.21,0c0,0.04 0.01,0.08 0.02,0.12l0.01,0.03c0.01,0.04 0.01,0.08 0.02,0.12l0.42,0c-0.06,-0.06 -0.18,-0.15 -0.28,-0.19l0.12,-0.11c0.1,0.04 0.22,0.12 0.29,0.17l-0.12,0.13l0.17,0l0,0.18l-0.58,0c0.02,0.18 0.05,0.4 0.09,0.55c0.08,-0.12 0.15,-0.28 0.19,-0.43l0.21,0.04c-0.08,0.24 -0.19,0.47 -0.32,0.64c0.04,0.11 0.12,0.2 0.2,0.21c0.03,0.01 0.06,-0.11 0.08,-0.23l0.17,0.04c-0.04,0.33 -0.16,0.44 -0.33,0.38c-0.12,-0.02 -0.21,-0.11 -0.28,-0.22c-0.11,0.08 -0.25,0.17 -0.39,0.25zm-0.01,-0.58l-0.65,0l0,-0.51l0.65,0l0,0.51zm-0.18,-0.13l0,-0.25l-0.29,0l0,0.25l0.29,0z" id="svg_53"/>
   <path class="st0" d="m48.8,66.91l-0.01,-0.22c0.07,0.01 0.16,0.01 0.23,0.01c0.07,0 0.13,-0.01 0.18,-0.06c0.07,-0.05 0.1,-0.22 0.09,-0.4c-0.13,0.09 -0.28,0.18 -0.45,0.26l-0.02,0.01c-0.26,0.12 -0.55,0.22 -0.79,0.29l-0.07,-0.21c0.41,-0.09 1.03,-0.35 1.31,-0.58c-0.02,-0.05 -0.05,-0.11 -0.08,-0.16c-0.13,0.08 -0.32,0.17 -0.51,0.25l-0.03,0.01l-0.03,0.01c-0.03,0.01 -0.06,0.03 -0.09,0.04l-0.03,0.01c-0.15,0.06 -0.3,0.11 -0.43,0.15l-0.07,-0.2c0.32,-0.07 0.84,-0.27 1.09,-0.43c-0.03,-0.04 -0.08,-0.1 -0.13,-0.14c-0.25,0.14 -0.58,0.24 -0.88,0.32l-0.07,-0.21c0.3,-0.06 0.72,-0.19 0.98,-0.35l-0.61,0l0,-0.21l1.69,0l0,0.21l-0.71,0c-0.05,0.04 -0.13,0.1 -0.2,0.14c0.12,0.1 0.25,0.24 0.31,0.39c0.2,-0.13 0.45,-0.3 0.6,-0.43l0.21,0.15c-0.06,0.04 -0.13,0.09 -0.2,0.14l-0.02,0.02c-0.01,0.01 -0.02,0.01 -0.02,0.02l-0.02,0.02l-0.02,0.01c-0.04,0.03 -0.08,0.06 -0.13,0.08c0.12,0.32 0.39,0.63 0.7,0.76l-0.12,0.22c-0.38,-0.16 -0.65,-0.5 -0.8,-0.85c-0.04,0.02 -0.08,0.04 -0.12,0.06c0.09,0.32 0,0.68 -0.16,0.79c-0.09,0.08 -0.18,0.11 -0.31,0.11c-0.05,-0.02 -0.14,-0.02 -0.26,-0.03zm-0.56,-1.69l-0.25,0l0,-0.57l1.1,0c-0.02,-0.07 -0.07,-0.13 -0.09,-0.18l0.28,-0.07c0.05,0.07 0.11,0.18 0.14,0.25l1.07,0l0,0.57l-0.26,0l0,-0.35l-1.98,0l0,0.35l-0.01,0z" id="svg_54"/>
   <path class="st0" d="m52.5,65.62l-0.26,0l0,-0.6l-0.9,0l0,0.36l-0.23,0l0,-0.52l1.13,0l0,-0.15l-0.95,0l0,-0.18l2.17,0l0,0.18l-0.96,0l0,0.15l1.14,0l0,0.52l-0.24,0l0,-0.36l-0.9,0l0,0.6zm0.67,1.29l-0.29,0c-0.53,0 -0.65,-0.07 -0.65,-0.3l0,-0.06l-0.6,0l0,0.13l-0.25,0l0,-0.95l2.03,0l0,0.82l-0.91,0l0,0.06c0,0.09 0.06,0.12 0.4,0.12l0.28,0c0.32,0 0.35,-0.06 0.37,-0.27l0.22,0.03c-0.06,0.32 -0.14,0.42 -0.6,0.42zm-1.08,-1.34l-0.66,0l0,-0.14l0.66,0l0,0.14zm0,-0.27l-0.6,0l0,-0.14l0.6,0l0,0.14zm0.13,0.76l0,-0.17l-0.6,0l0,0.17l0.6,0zm0,0.31l0,-0.17l-0.6,0l0,0.17l0.6,0zm0.91,-0.31l0,-0.17l-0.65,0l0,0.17l0.65,0zm0,0.31l0,-0.17l-0.65,0l0,0.17l0.65,0zm0.12,-1.07l-0.59,0l0,-0.14l0.59,0l0,0.14zm0.08,0.27l-0.67,0l0,-0.14l0.67,0l0,0.14z" id="svg_55"/>
   <path class="st0" d="m55.81,65.62l-1.59,0l0,-0.19l0.66,0c-0.01,-0.04 -0.03,-0.08 -0.05,-0.11l0.22,-0.05l-0.7,0l0,-0.75l1.35,0l0,0.75l-0.61,0c0.03,0.04 0.07,0.11 0.09,0.16l0.62,0l0,0.19l0.01,0zm-1.43,1.21l-0.16,-0.15c0.09,-0.08 0.2,-0.23 0.26,-0.36l0.22,0.06c-0.08,0.15 -0.21,0.34 -0.32,0.45zm0.27,0.08l-0.02,-0.19c0.05,0 0.14,0 0.18,0l0.02,0c0.03,0 0.05,-0.01 0.05,-0.04l0,-0.41l-0.49,0l0,-0.53l1.28,0l0,0.53l-0.53,0l0,0.41c0,0.1 -0.03,0.16 -0.11,0.19c-0.08,0.04 -0.19,0.04 -0.38,0.04zm0.79,-2.09l0,-0.15l-0.84,0l0,0.15l0.84,0zm0,0.29l0,-0.15l-0.84,0l0,0.15l0.84,0zm-0.03,1l0,-0.2l-0.78,0l0,0.2l0.78,0zm0.5,0.79c-0.04,-0.05 -0.15,-0.13 -0.21,-0.18l-0.19,0.09c-0.04,-0.1 -0.16,-0.29 -0.25,-0.41l0.18,-0.07c0.09,0.12 0.21,0.29 0.26,0.39c0.35,-0.15 0.75,-0.44 0.93,-0.73l0.24,0.08c-0.2,0.33 -0.58,0.65 -0.96,0.83zm0.06,-1.68l-0.13,-0.19c0.21,-0.11 0.52,-0.34 0.67,-0.55l0.24,0.09c-0.19,0.23 -0.49,0.48 -0.78,0.65zm0.43,0.49l-0.02,0.02c-0.13,0.1 -0.27,0.19 -0.41,0.26l-0.12,-0.2c0.24,-0.11 0.58,-0.36 0.75,-0.58l0.24,0.09c-0.12,0.14 -0.27,0.28 -0.44,0.41z" id="svg_56"/>
   <path class="st0" d="m58.16,66.93l-0.08,-0.23c0.24,-0.05 0.53,-0.19 0.74,-0.32c-0.24,-0.21 -0.46,-0.51 -0.6,-0.82c-0.06,0.42 -0.28,0.96 -0.73,1.33l-0.18,-0.21c0.57,-0.47 0.65,-1.21 0.65,-1.65l0,-0.22l-0.5,0l0,-0.25l1.85,0c-0.04,0.19 -0.1,0.45 -0.15,0.65l0.5,0l0.06,-0.01l0.17,0.07c-0.11,0.45 -0.35,0.84 -0.63,1.09c0.21,0.13 0.49,0.25 0.74,0.3l-0.09,0.24c-0.36,-0.08 -0.64,-0.22 -0.87,-0.37c-0.23,0.18 -0.56,0.31 -0.88,0.4zm0.89,-0.71c0.21,-0.19 0.4,-0.47 0.5,-0.77l-0.75,0c0.06,-0.16 0.13,-0.42 0.18,-0.64l-0.75,0l0,0.14c0.13,0.49 0.45,0.97 0.82,1.27z" id="svg_57"/>
   <path class="st0" d="m61.16,66.92l-0.26,0l0,-1.06c-0.02,0.02 -0.04,0.04 -0.07,0.05l-0.02,0.02c-0.1,0.08 -0.19,0.15 -0.28,0.2l-0.12,-0.23c0.3,-0.16 0.64,-0.49 0.82,-0.79l-0.73,0l0,-0.22l0.54,0c-0.05,-0.1 -0.16,-0.24 -0.24,-0.33l0.2,-0.11c0.1,0.09 0.21,0.24 0.27,0.33l-0.17,0.12l0.28,0l0.07,-0.01l0.14,0.09c-0.08,0.19 -0.24,0.4 -0.37,0.57c0.11,0.1 0.35,0.31 0.41,0.36l-0.16,0.2c-0.04,-0.05 -0.11,-0.12 -0.19,-0.2l-0.02,-0.02c-0.01,-0.01 -0.03,-0.03 -0.04,-0.04l-0.02,-0.02c-0.01,-0.01 -0.01,-0.01 -0.02,-0.02l0,1.11l-0.02,0zm0.34,0.02l-0.08,-0.19c0.42,-0.12 0.53,-0.39 0.56,-0.73l-0.22,0l0,-1.47l1.27,0l0,1.47l-0.32,0l0,0.61c0,0.06 0.01,0.08 0.11,0.08l0.07,0c0.1,0 0.11,-0.05 0.12,-0.3l0.21,0.03c-0.02,0.37 -0.08,0.47 -0.32,0.47l-0.1,0c-0.27,0 -0.33,-0.08 -0.33,-0.29l0,-0.61l-0.22,0c-0.05,0.43 -0.22,0.76 -0.75,0.93zm1.28,-1.97l0,-0.24l-0.78,0l0,0.24l0.78,0zm0,0.43l0,-0.24l-0.78,0l0,0.24l0.78,0zm0,0.43l0,-0.25l-0.78,0l0,0.25l0.78,0z" id="svg_58"/>
   <path class="st0" d="m63.65,66.79l-0.02,-0.18c0.08,-0.01 0.17,-0.01 0.27,-0.02l0,-0.19l-0.19,0l0,-0.15l0.19,0l0,-0.17l-0.23,0l0,-0.16l0.64,0l0,0.16l-0.21,0l0,0.17l0.18,0l0,0.15l-0.18,0l0,0.17l0.22,-0.02l0,0.16l-0.67,0.08zm1.01,0.13l-0.26,0l0,-1.16l-0.03,0c-0.01,0 -0.02,0 -0.03,0l-0.04,0l-0.03,0c-0.01,0 -0.01,0 -0.02,0l-0.04,0c-0.01,0 -0.02,0 -0.03,0l-0.03,0c-0.18,0.01 -0.36,0.03 -0.5,0.03l-0.02,-0.19l0.16,-0.01l0,-0.88l-0.15,0l0,-0.19l1.18,0l0,0.19l-0.15,0l0,2.21l-0.01,0zm-0.26,-2.01l0,-0.18l-0.37,0l0,0.18l0.37,0zm0,0.33l0,-0.18l-0.37,0l0,0.18l0.37,0zm-0.37,0.36c0.06,0 0.13,-0.01 0.19,-0.01l0.03,0c0.05,0 0.1,-0.01 0.15,-0.01l0,-0.18l-0.37,0l0,0.2zm0.96,0.92l-0.01,0.03c-0.04,0.09 -0.08,0.18 -0.12,0.26l-0.17,-0.1c0.03,-0.06 0.07,-0.14 0.11,-0.21l0.01,-0.03c0.04,-0.08 0.07,-0.16 0.1,-0.22l0.17,0.07c-0.03,0.05 -0.06,0.12 -0.09,0.2zm1.33,-0.5l-1.54,0l0,-0.2l1.54,0l0,0.2zm-0.09,-0.36l-1.36,0l0,-0.65l0.5,0c0.01,-0.05 0.03,-0.12 0.04,-0.18l-0.59,0l0,-0.19l0.62,0c0.01,-0.07 0.03,-0.15 0.03,-0.21l0.22,0.01c-0.01,0.06 -0.02,0.13 -0.03,0.2l0.62,0l0,0.19l-0.65,0c-0.01,0.06 -0.02,0.13 -0.04,0.18l0.64,0l0,0.65zm-0.93,-0.17l0,-0.29l-0.22,0l0,0.29l0.22,0zm0.38,1.39l-0.15,0c-0.33,0 -0.39,-0.07 -0.39,-0.26l0,-0.39l0.21,0l0,0.39c0,0.05 0.03,0.07 0.19,0.07l0.12,0c0.15,0 0.18,-0.03 0.18,-0.21l0.19,0.03c-0.02,0.3 -0.08,0.37 -0.35,0.37zm-0.07,-0.37c-0.05,-0.11 -0.19,-0.28 -0.31,-0.39l0.17,-0.08c0.13,0.1 0.27,0.27 0.32,0.38l-0.18,0.09zm0.05,-1.02l0,-0.29l-0.22,0l0,0.29l0.22,0zm0.37,0l0,-0.29l-0.22,0l0,0.29l0.22,0zm0.14,1.28c-0.04,-0.15 -0.16,-0.37 -0.3,-0.51l0.18,-0.07c0.15,0.14 0.27,0.36 0.31,0.5l-0.19,0.08z" id="svg_59"/>
   <path class="st0" d="m66.88,66.93l-0.09,-0.25c0.42,-0.1 0.85,-0.3 1.15,-0.53c-0.27,-0.27 -0.54,-0.65 -0.7,-1.02l-0.44,0l0,-0.24l1.29,0c-0.03,-0.12 -0.12,-0.29 -0.19,-0.41l0.27,-0.08c0.08,0.12 0.18,0.3 0.21,0.41l-0.25,0.08l1.33,0l0,0.24l-0.44,0c-0.15,0.39 -0.41,0.76 -0.68,1.02c0.3,0.22 0.73,0.43 1.11,0.52l-0.09,0.24c-0.49,-0.12 -0.94,-0.33 -1.24,-0.58c-0.31,0.25 -0.75,0.46 -1.24,0.6zm1.27,-0.94c0.23,-0.22 0.44,-0.53 0.57,-0.86l-1.2,0c0.13,0.31 0.38,0.63 0.63,0.86z" id="svg_60"/>
   <path class="st0" d="m70.65,66.92l-0.27,0l0,-1.51c-0.01,0.01 -0.01,0.01 -0.02,0.02l-0.02,0.02c-0.08,0.09 -0.17,0.18 -0.24,0.25l-0.18,-0.23c0.3,-0.24 0.61,-0.67 0.77,-1.05l0.25,0.07c-0.04,0.1 -0.1,0.2 -0.15,0.3l-0.01,0.02c-0.04,0.07 -0.08,0.14 -0.12,0.2l0,1.91l-0.01,0zm1.44,-0.05l-0.22,0c-0.44,0 -0.55,-0.11 -0.55,-0.44l0,-0.39c-0.01,0.01 -0.02,0.01 -0.04,0.02l-0.02,0.01c-0.11,0.06 -0.22,0.12 -0.33,0.16c-0.04,-0.05 -0.12,-0.13 -0.19,-0.18c0.11,-0.05 0.24,-0.12 0.37,-0.19l0.02,-0.01c0.07,-0.04 0.13,-0.08 0.19,-0.12l0,-1.27l0.28,0l0,1.06c0.29,-0.2 0.56,-0.48 0.74,-0.73l0.25,0.16c-0.15,0.19 -0.33,0.38 -0.53,0.55l-0.02,0.02l-0.02,0.02c-0.14,0.12 -0.28,0.23 -0.42,0.32l0,0.58c0,0.15 0.05,0.19 0.29,0.19l0.19,0c0.25,0 0.28,-0.14 0.3,-0.53l0.25,0.04c-0.03,0.53 -0.1,0.73 -0.54,0.73z" id="svg_61"/>
   <path class="st0" d="m74.56,66.92l-0.28,0l0,-0.83l-1.05,0l0,-1.19l1.05,0l0,-0.47l0.28,0l0,0.47l1.06,0l0,1.18l-1.06,0l0,0.84zm-0.28,-1.07l0,-0.72l-0.79,0l0,0.72l0.79,0zm1.07,0l0,-0.71l-0.79,0l0,0.71l0.79,0z" id="svg_62"/>
   <path class="st0" d="m76.64,65.92l-0.01,0.03c-0.04,0.21 -0.09,0.41 -0.15,0.56l-0.26,-0.1c0.11,-0.27 0.21,-0.71 0.24,-1.03l0.26,0.04c-0.01,0.14 -0.04,0.32 -0.08,0.5zm1.19,0.95l-0.25,0c-0.48,0 -0.59,-0.1 -0.59,-0.38l0,-1.3l0.26,0l0,1.3c0,0.12 0.05,0.16 0.35,0.16l0.23,0c0.3,0 0.35,-0.12 0.36,-0.51l0.24,0.04c-0.04,0.52 -0.11,0.69 -0.6,0.69zm0.07,-1.61c-0.1,-0.1 -0.28,-0.25 -0.48,-0.38l-0.02,-0.02c-0.1,-0.07 -0.21,-0.14 -0.3,-0.2l0.18,-0.16c0.1,0.06 0.22,0.14 0.35,0.22l0.02,0.02c0.17,0.12 0.34,0.24 0.44,0.34l-0.19,0.18zm0.8,1.14c-0.05,-0.26 -0.21,-0.72 -0.37,-1.02l0.25,-0.09c0.16,0.31 0.32,0.75 0.38,1.01l-0.26,0.1z" id="svg_63"/>
  </g>
 </g>
</svg>